HIERARCHY
ROOT Hips
{
 OFFSET 0.000000 0.000000 0.000000
 CHANNELS 6 Xposition Yposition Zposition Yrotation Xrotation Zrotation
 JOINT Chest
 {
  OFFSET 0.000000 9.588913 -0.003946
  CHANNELS 3 Yrotation Xrotation Zrotation
  JOINT Chest2
  {
   OFFSET 0.000000 9.541882 0.008053
   CHANNELS 3 Yrotation Xrotation Zrotation
   JOINT Chest3
   {
    OFFSET 0.000000 9.501360 0.000000
    CHANNELS 3 Yrotation Xrotation Zrotation
    JOINT Chest4
    {
     OFFSET 0.000000 9.491660 0.000000
     CHANNELS 3 Yrotation Xrotation Zrotation
     JOINT Neck
     {
      OFFSET 0.000000 14.331917 0.000000
      CHANNELS 3 Yrotation Xrotation Zrotation
      JOINT Head
      {
       OFFSET 0.000000 8.884799 0.017034
       CHANNELS 3 Yrotation Xrotation Zrotation
       End Site
       {
        OFFSET 0.000000 16.896195 0.008993
       }
      }
     }
     JOINT RightCollar
     {
      OFFSET -2.923010 9.499495 0.000000
      CHANNELS 3 Yrotation Xrotation Zrotation
      JOINT RightShoulder
      {
       OFFSET -13.795216 0.000000 0.000000
       CHANNELS 3 Yrotation Xrotation Zrotation
       JOINT RightElbow
       {
        OFFSET -30.272209 0.000000 0.000000
        CHANNELS 3 Yrotation Xrotation Zrotation
        JOINT RightWrist
        {
         OFFSET -24.478199 0.000000 0.000000
         CHANNELS 3 Yrotation Xrotation Zrotation
         End Site
         {
          OFFSET -18.090752 0.000000 0.000000
         }
        }
       }
      }
     }
     JOINT LeftCollar
     {
      OFFSET 2.923010 9.499495 0.000000
      CHANNELS 3 Yrotation Xrotation Zrotation
      JOINT LeftShoulder
      {
       OFFSET 13.795216 0.000000 0.000000
       CHANNELS 3 Yrotation Xrotation Zrotation
       JOINT LeftElbow
       {
        OFFSET 30.272209 0.000000 0.000000
        CHANNELS 3 Yrotation Xrotation Zrotation
        JOINT LeftWrist
        {
         OFFSET 24.478199 0.000000 0.000000
         CHANNELS 3 Yrotation Xrotation Zrotation
         End Site
         {
          OFFSET 18.090752 0.000000 0.000000
         }
        }
       }
      }
     }
    }
   }
  }
 }
 JOINT RightHip
 {
  OFFSET -7.826875 0.019532 0.001973
  CHANNELS 3 Yrotation Xrotation Zrotation
  JOINT RightKnee
  {
   OFFSET 0.000000 -40.546152 -0.001885
   CHANNELS 3 Yrotation Xrotation Zrotation
   JOINT RightAnkle
   {
    OFFSET 0.000000 -39.417092 -0.003189
    CHANNELS 3 Yrotation Xrotation Zrotation
    JOINT RightToe
    {
     OFFSET 0.000000 -7.579396 17.243563
     CHANNELS 3 Yrotation Xrotation Zrotation
     End Site
     {
      OFFSET 0.000000 -1.500329 6.694466
     }
    }
   }
  }
 }
 JOINT LeftHip
 {
  OFFSET 7.826875 0.019532 0.001973
  CHANNELS 3 Yrotation Xrotation Zrotation
  JOINT LeftKnee
  {
   OFFSET 0.000000 -40.546152 -0.001885
   CHANNELS 3 Yrotation Xrotation Zrotation
   JOINT LeftAnkle
   {
    OFFSET 0.000000 -39.417092 -0.003189
    CHANNELS 3 Yrotation Xrotation Zrotation
    JOINT LeftToe
    {
     OFFSET 0.000000 -7.579396 17.243563
     CHANNELS 3 Yrotation Xrotation Zrotation
     End Site
     {
      OFFSET 0.000000 -1.500329 6.694466
     }
    }
   }
  }
 }
}
MOTION
Frames: 8
Frame Time: 0.008333
0.000000 87.345680 0.000000 0.000000 -5.767889 0.000000 0.000000 11.653876 0.000000 0.000000 -5.885988 0.000000 0.000000 -0.000000 0.000000 0.000000 -0.000000 0.000000 0.000000 12.528808 0.000000 0.000000 0.711711 0.000000 0.000000 -0.000000 0.000000 0.000000 -0.000000 0.000000 2.309063 -0.000000 0.000000 -2.309063 -0.000000 -0.000000 0.000000 -0.000000 0.000000 0.000000 0.000000 0.000000 -2.309063 0.000000 0.000000 2.309063 -0.000000 0.000000 0.000000 8.520374 0.000000 0.000000 1.905768 0.000000 -0.000000 -4.658254 0.000000 0.000000 -0.000000 0.000000 0.000000 8.520374 0.000000 0.000000 1.905768 0.000000 -0.000000 -4.658254 0.000000 0.000000 -0.000000 0.000000
0.775142 89.162136 17.465795 -57.456744 -7.965292 1.241709 3.713431 3.481660 0.706515 2.125977 2.013856 0.378290 2.659956 2.515014 0.484601 2.125976 2.013856 0.378289 10.067252 27.186902 -1.626140 11.719742 4.908124 -4.123778 -9.653034 1.497214 -1.012225 2.790589 -2.341562 87.541609 0.764274 -2.083569 0.143532 0.600763 -5.153619 -2.499799 -6.655262 0.270846 -1.505763 -1.582686 -5.479498 -92.766028 -5.758035 8.548571 -5.700790 -1.511971 9.599479 0.244459 -2.760786 9.993118 -5.909327 -0.329488 1.141521 0.101232 13.382635 -4.676971 0.751884 0.026610 -0.080442 0.018554 4.737863 5.975037 1.789186 10.808382 8.502500 2.426667 5.221766 -5.070495 -3.846460 -0.005776 0.030000 -0.074739
0.788457 89.149313 17.513617 -57.619791 -7.956817 1.238561 3.707709 3.462462 0.687822 2.125088 2.000460 0.376478 2.658816 2.498281 0.482252 2.125088 2.000460 0.376477 10.105158 27.225060 -1.610172 11.761654 4.961479 -4.114468 -9.712541 1.515310 -1.044735 2.616986 -2.221532 87.683680 0.763843 -2.203638 0.089514 0.603504 -5.171215 -2.507774 -6.665838 0.260987 -1.522325 -1.616589 -5.502303 -92.796446 -5.518643 8.545584 -5.403821 -1.401579 9.694023 0.262878 -2.728488 9.976042 -5.941199 -0.273948 1.131889 0.101399 13.456233 -4.694013 0.784504 0.024830 -0.053925 0.018856 4.813633 6.153398 1.773637 10.805507 8.208570 2.339896 5.317277 -5.009831 -3.759276 -0.021809 0.064945 -0.068329
0.805294 89.135126 17.565939 -57.778148 -7.935108 1.230380 3.699788 3.439616 0.672848 2.123224 1.986061 0.375493 2.656459 2.480292 0.480926 2.123223 1.986061 0.375493 10.142407 27.260229 -1.600858 11.804414 5.011429 -4.112533 -9.752704 1.531583 -1.071628 2.460234 -2.102484 87.811478 0.757288 -2.314393 0.053009 0.587902 -5.181043 -2.487143 -6.668983 0.252867 -1.546457 -1.618329 -5.523371 -92.813571 -5.278879 8.539346 -5.117823 -1.280148 9.800904 0.281659 -2.690462 9.947181 -5.969648 -0.218152 1.121642 0.101587 13.519130 -4.714397 0.817936 0.024874 -0.027034 0.021217 4.898823 6.314609 1.772467 10.790263 7.924070 2.240576 5.387823 -4.953015 -3.684894 -0.033521 0.095990 -0.049359
0.825174 89.120692 17.621027 -57.931377 -7.903171 1.224795 3.688514 3.412230 0.654617 2.121602 1.971816 0.375691 2.654412 2.462487 0.481081 2.121601 1.971816 0.375690 10.178360 27.290919 -1.598195 11.847216 5.055956 -4.117830 -9.782449 1.548040 -1.092447 2.331340 -1.988206 87.920772 0.743203 -2.411794 0.035219 0.558906 -5.177072 -2.448717 -6.668797 0.248943 -1.578291 -1.588561 -5.541141 -92.815831 -5.041864 8.529857 -4.845969 -1.150900 9.910576 0.307379 -2.645128 9.908096 -6.001694 -0.161608 1.113476 0.101915 13.564294 -4.742180 0.853317 0.026406 0.003264 0.024083 4.989814 6.469261 1.775378 10.771913 7.642605 2.128376 5.453298 -4.924717 -3.618255 -0.037200 0.149022 -0.023750
0.838742 89.107919 17.676227 -58.118696 -7.905321 1.200439 3.711501 3.418505 0.661076 2.122199 1.958691 0.376776 2.655145 2.446074 0.482363 2.122198 1.958690 0.376776 10.212430 27.316243 -1.599625 11.888684 5.093627 -4.127339 -9.810344 1.566120 -1.101287 2.238407 -1.881114 88.009883 0.718128 -2.488210 0.030246 0.521247 -5.157845 -2.398319 -6.669551 0.251901 -1.613540 -1.530237 -5.554488 -92.804795 -4.805289 8.516097 -4.590008 -1.016703 10.014274 0.344605 -2.552253 9.901679 -6.006214 -0.104373 1.113070 0.099876 13.607835 -4.769005 0.887080 0.027746 0.026425 0.025761 5.118646 6.656131 1.810168 10.761231 7.382503 2.018949 5.500335 -4.907356 -3.572458 -0.013790 0.191931 0.009612
0.856125 89.096368 17.728740 -58.290226 -7.886814 1.179921 3.717918 3.402767 0.657471 2.125991 1.947303 0.378889 2.659881 2.431824 0.484959 2.125990 1.947303 0.378889 10.243439 27.335945 -1.603935 11.927105 5.123842 -4.139413 -9.838915 1.585767 -1.095769 2.183243 -1.783503 88.079954 0.680564 -2.533364 0.029849 0.477005 -5.128687 -2.337847 -6.674368 0.260245 -1.644826 -1.446973 -5.559866 -92.786023 -4.574127 8.493510 -4.350570 -0.876763 10.105876 0.389964 -2.471659 9.865441 -6.013537 -0.048273 1.126931 0.095217 13.650487 -4.802157 0.922163 0.030282 0.047580 0.025914 5.229541 6.822022 1.827912 10.763017 7.097178 1.912989 5.557170 -4.858571 -3.506242 -0.011705 0.226395 0.026071
0.872925 89.087070 17.778296 -58.467049 -7.872626 1.156961 3.728886 3.389425 0.654088 2.132788 1.937890 0.382261 2.668384 2.420031 0.489154 2.132788 1.937890 0.382261 10.271594 27.350038 -1.611113 11.962718 5.146636 -4.154092 -9.869708 1.607255 -1.077748 2.170161 -1.697546 88.135297 0.629502 -2.544459 0.030444 0.429448 -5.093968 -2.273240 -6.682128 0.270478 -1.667086 -1.344767 -5.553067 -92.766656 -4.354748 8.460753 -4.122316 -0.731357 10.182567 0.436846 -2.385749 9.824849 -6.014228 0.005698 1.155557 0.089805 13.692252 -4.837091 0.956667 0.032581 0.062825 0.023462 5.347077 7.001064 1.844246 10.776687 6.787893 1.818182 5.599264 -4.794406 -3.435382 -0.012314 0.257761 0.031754
